<?xml version="1.0" encoding="UTF-8" standalone="no"?>
<svg
   xmlns:dc="http://purl.org/dc/elements/1.1/"
   xmlns:cc="http://creativecommons.org/ns#"
   xmlns:rdf="http://www.w3.org/1999/02/22-rdf-syntax-ns#"
   xmlns:svg="http://www.w3.org/2000/svg"
   xmlns="http://www.w3.org/2000/svg"
   xmlns:sodipodi="http://sodipodi.sourceforge.net/DTD/sodipodi-0.dtd"
   xmlns:inkscape="http://www.inkscape.org/namespaces/inkscape"
   width="450.1181"
   height="450.1181"
   viewBox="0 0 119.09375 119.09375"
   version="1.1"
   id="svg8"
   inkscape:version="1.0.1 (3bc2e813f5, 2020-09-07)"
   sodipodi:docname="logo.svg">
  <defs
     id="defs2">
    <clipPath
       clipPathUnits="userSpaceOnUse"
       id="clipPath864">
      <rect
         style="fill:none;stroke:#283618;stroke-width:1.02874"
         id="rect866"
         width="25.398127"
         height="27.40066"
         x="91.601875"
         y="34.140915" />
    </clipPath>
  </defs>
  <sodipodi:namedview
     id="base"
     pagecolor="#ffffff"
     bordercolor="#666666"
     borderopacity="1.0"
     inkscape:pageopacity="0.0"
     inkscape:pageshadow="2"
     inkscape:zoom="1.4"
     inkscape:cx="280.83115"
     inkscape:cy="221.01476"
     inkscape:document-units="mm"
     inkscape:current-layer="layer1"
     inkscape:document-rotation="0"
     showgrid="false"
     fit-margin-top="0"
     fit-margin-left="0"
     fit-margin-right="0"
     fit-margin-bottom="0"
     units="px"
     inkscape:window-width="1920"
     inkscape:window-height="1017"
     inkscape:window-x="-8"
     inkscape:window-y="-8"
     inkscape:window-maximized="1" />
  <metadata
     id="metadata5">
    <rdf:RDF>
      <cc:Work
         rdf:about="">
        <dc:format>image/svg+xml</dc:format>
        <dc:type
           rdf:resource="http://purl.org/dc/dcmitype/StillImage" />
        <dc:title></dc:title>
      </cc:Work>
    </rdf:RDF>
  </metadata>
  <g
     inkscape:label="Capa 1"
     inkscape:groupmode="layer"
     id="layer1"
     transform="translate(-109.23045,-53.607956)">
    <circle
       style="opacity:1;fill:none;stroke:#0080e2;stroke-width:4;stroke-miterlimit:4;stroke-dasharray:none;stroke-opacity:1"
       id="path875"
       cy="113.15483"
       cx="168.77733"
       r="57.546875" />
    <circle
       style="opacity:1;fill:none;stroke:#0080e2;stroke-width:4;stroke-miterlimit:4;stroke-dasharray:none;stroke-opacity:1"
       id="path875-1"
       cy="99.831169"
       cx="193.25128"
       r="24.854214" />
    <path
       style="fill:none;stroke:#0080e2;stroke-width:4;stroke-linecap:butt;stroke-linejoin:miter;stroke-miterlimit:4;stroke-dasharray:none;stroke-opacity:1"
       d="m 186.6367,76.396645 c 0,0 -12.04608,-1.602444 -17.62225,-3.851819 -5.19661,-2.096264 -14.31674,-8.810385 -14.31674,-8.810385 v 50.081849 c 0,0 4.80694,-4.13963 7.56449,-5.66104 2.08185,-1.14862 6.66092,-2.55201 6.66092,-2.55201"
       id="path892"
       sodipodi:nodetypes="caccac" />
    <path
       style="fill:none;stroke:#0080e2;stroke-width:4;stroke-linecap:butt;stroke-linejoin:miter;stroke-miterlimit:4;stroke-dasharray:none;stroke-opacity:1"
       d="m 188.90455,124.58861 v 41.57738"
       id="path894" />
    <path
       style="fill:none;stroke:#0080e2;stroke-width:4;stroke-linecap:butt;stroke-linejoin:miter;stroke-miterlimit:4;stroke-dasharray:none;stroke-opacity:1"
       d="M 203.45664,122.32075 V 158.0395"
       id="path896" />
    <path
       style="fill:#0080e2;fill-opacity:1;stroke:#0080e2;stroke-width:4;stroke-linecap:butt;stroke-linejoin:miter;stroke-miterlimit:4;stroke-dasharray:none;stroke-opacity:1"
       d="m 115.48268,131.58117 h 40.91592 v 36.94717 c 0,0 -19.028,-6.62326 -26.25301,-13.24734 -6.84738,-6.27786 -14.66291,-23.69983 -14.66291,-23.69983 z"
       id="path944"
       sodipodi:nodetypes="cccac" />
    <circle
       style="opacity:1;fill:#0080e2;fill-opacity:1;stroke:#0080e2;stroke-width:1.32573;stroke-miterlimit:4;stroke-dasharray:none;stroke-opacity:1"
       id="path875-1-4"
       cy="100.28743"
       cx="193.84119"
       r="8.2374811" />
    <path
       style="fill:#0080e2;fill-opacity:1;stroke:#0080e2;stroke-width:0.264583px;stroke-linecap:butt;stroke-linejoin:miter;stroke-opacity:1"
       d="m 185.31308,98.84639 c 0,0 -3.78629,-1.788347 -5.81138,-1.771763 -1.84521,0.01511 -3.77105,0.600859 -5.26804,1.700893 -0.54328,0.399226 -1.53744,2.00001 -1.05215,2.91027 0.41057,0.77012 1.66434,0.9758 2.54043,0.63325 1.47699,-0.57749 2.27798,-2.16799 3.74152,-2.40495 2.00274,-0.324261 5.89687,1.50726 5.89687,1.50726 l 0.0709,-2.551335"
       id="path983"
       sodipodi:nodetypes="casasacc" />
    <path
       style="fill:#0080e2;fill-opacity:1;stroke:#0080e2;stroke-width:0.264583px;stroke-linecap:butt;stroke-linejoin:miter;stroke-opacity:1"
       d="m 186.66899,105.16742 c 0,0 -3.00133,2.91996 -3.69516,4.82255 -0.63222,1.73359 -0.75817,3.7426 -0.25221,5.53007 0.18363,0.64871 1.33474,2.14061 2.35732,2.00493 0.86514,-0.1148 1.49697,-1.21708 1.48301,-2.15766 -0.0235,-1.58569 -1.23268,-2.89307 -0.94196,-4.34689 0.39782,-1.98943 3.47737,-4.99527 3.47737,-4.99527 l -2.36485,-0.96012"
       id="path983-0"
       sodipodi:nodetypes="casasacc" />
    <path
       style="fill:#0080e2;fill-opacity:1;stroke:#0080e2;stroke-width:0.264583px;stroke-linecap:butt;stroke-linejoin:miter;stroke-opacity:1"
       d="m 193.42087,108.90149 c 0,0 1.34654,3.96499 2.76622,5.40919 1.29357,1.31595 3.05343,2.29314 4.88484,2.60455 0.66466,0.11306 2.50647,-0.28513 2.82348,-1.26676 0.26817,-0.83049 -0.45554,-1.87474 -1.31081,-2.2664 -1.44186,-0.66032 -3.14204,-0.13044 -4.32977,-1.01778 -1.62531,-1.21426 -3.01577,-5.28678 -3.01577,-5.28678 l -1.88334,1.72263"
       id="path983-0-9"
       sodipodi:nodetypes="casasacc" />
    <path
       style="fill:#0080e2;fill-opacity:1;stroke:#0080e2;stroke-width:0.264583px;stroke-linecap:butt;stroke-linejoin:miter;stroke-opacity:1"
       d="m 201.03235,105.78094 c 0,0 3.8083,1.74101 5.833,1.69919 1.84489,-0.0381 3.76329,-0.64783 5.24646,-1.76641 0.53829,-0.40594 1.51239,-2.01901 1.01581,-2.92316 -0.42015,-0.76493 -1.67638,-0.95497 -2.54813,-0.60153 -1.46969,0.59582 -2.2508,2.19622 -3.71126,2.4514 -1.99854,0.34918 -5.9152,-1.43367 -5.9152,-1.43367 l -0.0391,2.55202"
       id="path983-0-9-2"
       sodipodi:nodetypes="casasacc" />
    <path
       style="fill:#0080e2;fill-opacity:1;stroke:#0080e2;stroke-width:0.264583px;stroke-linecap:butt;stroke-linejoin:miter;stroke-opacity:1"
       d="m 202.53208,97.834006 c 0,0 3.83788,-1.674793 5.15774,-3.210743 1.20263,-1.399535 2.02857,-3.235255 2.18511,-5.086341 0.0568,-0.671798 -0.49465,-2.473672 -1.49944,-2.707112 -0.85009,-0.197472 -1.82986,0.61139 -2.1483,1.496528 -0.53688,1.492224 0.13392,3.141899 -0.65053,4.399956 -1.07347,1.721554 -5.01481,3.449136 -5.01481,3.449136 l 1.87471,1.731992"
       id="path983-0-9-2-1"
       sodipodi:nodetypes="casasacc" />
    <path
       style="fill:#0080e2;fill-opacity:1;stroke:#0080e2;stroke-width:0.264583px;stroke-linecap:butt;stroke-linejoin:miter;stroke-opacity:1"
       d="m 197.48202,92.427331 c 0,0 1.79166,-3.784726 1.77687,-5.809809 -0.0135,-1.845224 -0.59758,-3.771592 -1.69626,-5.269561 -0.39875,-0.543642 -1.99865,-1.539193 -2.90936,-1.054712 -0.77047,0.40991 -0.97725,1.663486 -0.63548,2.539878 0.57617,1.477504 2.166,2.279896 2.40167,3.743634 0.32249,2.003023 -1.51244,5.895537 -1.51244,5.895537 l 2.55126,0.07313"
       id="path983-0-9-2-1-6"
       sodipodi:nodetypes="casasacc" />
    <path
       style="fill:#0080e2;fill-opacity:1;stroke:#0080e2;stroke-width:0.264583px;stroke-linecap:butt;stroke-linejoin:miter;stroke-opacity:1"
       d="m 190.09755,92.433109 c 0,0 -1.75532,-3.801716 -3.31873,-5.088925 -1.42457,-1.172884 -3.2773,-1.959926 -5.13127,-2.077412 -0.67285,-0.04267 -2.46269,0.546666 -2.67491,1.556158 -0.17953,0.854067 0.64982,1.816575 1.54147,2.116291 1.50321,0.505309 3.13838,-0.200118 4.41269,0.557644 1.74379,1.036946 3.55407,4.940995 3.55407,4.940995 l 1.69208,-1.910805"
       id="path983-0-9-2-1-6-7"
       sodipodi:nodetypes="casasacc" />
    <path
       style="fill:#0080e2;fill-opacity:1;stroke:#0080e2;stroke-width:0.264583px;stroke-linecap:butt;stroke-linejoin:miter;stroke-opacity:1"
       d="m 181.81664,103.57101 c 0,0 -2.49714,1.79012 -3.56969,3.01789 -0.84959,0.97256 -1.68855,3.10893 -1.86067,4.02698 -0.19037,1.01534 0.48836,2.19699 1.37461,2.29454 0.71267,0.0785 1.38969,-0.92429 1.48028,-1.5605 0.15598,-1.09544 -0.35471,-1.20615 0.0535,-3.10919 0.16767,-0.78162 2.52193,-4.66972 2.52193,-4.66972 z"
       id="path1075"
       sodipodi:nodetypes="cssassc" />
    <path
       style="fill:#0080e2;fill-opacity:1;stroke:#0080e2;stroke-width:0.264583px;stroke-linecap:butt;stroke-linejoin:miter;stroke-opacity:1"
       d="m 190.48207,111.86226 c 0,0 0.12513,3.06995 0.56241,4.64048 0.3464,1.24406 1.67134,3.11822 2.34413,3.76612 0.7441,0.71658 2.10436,0.79808 2.67249,0.11092 0.45689,-0.55255 -0.01,-1.66897 -0.49152,-2.09399 -0.82992,-0.73182 -1.20284,-0.36577 -2.56927,-1.7518 -0.56121,-0.56928 -2.51827,-4.6717 -2.51827,-4.6717 z"
       id="path1075-9"
       sodipodi:nodetypes="cssassc" />
    <path
       style="fill:#0080e2;fill-opacity:1;stroke:#0080e2;stroke-width:0.264583px;stroke-linecap:butt;stroke-linejoin:miter;stroke-opacity:1"
       d="m 200.79358,109.17678 c 0,0 2.47671,1.81831 3.9767,2.45689 1.1882,0.50581 3.47946,0.64033 4.40558,0.51907 1.02429,-0.13413 1.93697,-1.14605 1.75467,-2.01882 -0.14655,-0.70185 -1.31024,-1.03386 -1.94284,-0.92292 -1.08977,0.19168 -1.03652,0.71151 -2.97229,0.91404 -0.79505,0.0832 -5.22182,-0.94823 -5.22182,-0.94823 z"
       id="path1075-9-3"
       sodipodi:nodetypes="cssassc" />
    <path
       style="fill:#0080e2;fill-opacity:1;stroke:#0080e2;stroke-width:0.264583px;stroke-linecap:butt;stroke-linejoin:miter;stroke-opacity:1"
       d="m 205.8778,100.78319 c 0,0 2.97287,-0.77612 4.41423,-1.537857 1.14173,-0.60342 2.69069,-2.29714 3.18044,-3.092467 0.54166,-0.879642 0.33158,-2.226059 -0.46082,-2.634796 -0.63718,-0.32873 -1.62855,0.365238 -1.94126,0.926221 -0.53827,0.966752 -0.10119,1.253148 -1.1644,2.883428 -0.43666,0.669591 -4.02817,3.455491 -4.02817,3.455491 z"
       id="path1075-9-3-6"
       sodipodi:nodetypes="cssassc" />
    <path
       style="fill:#0080e2;fill-opacity:1;stroke:#0080e2;stroke-width:0.264583px;stroke-linecap:butt;stroke-linejoin:miter;stroke-opacity:1"
       d="m 201.62349,91.580696 c 0,0 1.80556,-2.486011 2.43643,-3.989264 0.4997,-1.190783 0.62245,-3.482703 0.49644,-4.408186 -0.13939,-1.023591 -1.15599,-1.931059 -2.02781,-1.744277 -0.70109,0.150148 -1.02711,1.315529 -0.91293,1.94755 0.19728,1.088773 0.71683,1.032852 0.92929,2.967559 0.0872,0.794612 -0.92139,5.22662 -0.92139,5.22662 z"
       id="path1075-9-3-6-7"
       sodipodi:nodetypes="cssassc" />
    <path
       style="fill:#0080e2;fill-opacity:1;stroke:#0080e2;stroke-width:0.264583px;stroke-linecap:butt;stroke-linejoin:miter;stroke-opacity:1"
       d="m 192.34703,88.691268 c 0,0 -0.66735,-2.999157 -1.37609,-4.467303 -0.56144,-1.162946 -2.19764,-2.772551 -2.9746,-3.290944 -0.85934,-0.573329 -2.21251,-0.412418 -2.64983,0.36457 -0.35172,0.624792 0.30569,1.640769 0.85491,1.973707 0.94652,0.573109 1.24864,0.14675 2.83911,1.268628 0.6532,0.460817 3.30652,4.151321 3.30652,4.151321 z"
       id="path1075-9-3-6-7-2"
       sodipodi:nodetypes="cssassc" />
    <path
       style="fill:#0080e2;fill-opacity:1;stroke:#0080e2;stroke-width:0.264583px;stroke-linecap:butt;stroke-linejoin:miter;stroke-opacity:1"
       d="m 184.06196,93.797354 c 0,0 -2.63692,-1.577011 -4.19038,-2.071515 -1.23054,-0.391682 -3.52429,-0.309851 -4.43488,-0.101929 -1.00711,0.229985 -1.82044,1.323352 -1.55677,2.175077 0.21199,0.684935 1.40177,0.905887 2.0211,0.73588 1.06689,-0.293453 0.96493,-0.805959 2.87302,-1.189852 0.78369,-0.157616 5.2879,0.45231 5.2879,0.45231 z"
       id="path1075-9-3-6-7-2-1"
       sodipodi:nodetypes="cssassc" />
    <path
       style="fill:#0080e2;fill-opacity:1;stroke:#0080e2;stroke-width:0.195832px;stroke-linecap:butt;stroke-linejoin:miter;stroke-opacity:1"
       d="m 138.49409,75.590258 c 0,0 -0.63975,-0.07878 -1.86814,0.171434 -0.97302,0.198216 -2.48184,1.068106 -3.01494,1.521564 -0.5896,0.501537 -0.72487,1.46595 -0.22803,1.896677 0.39951,0.346395 1.28106,0.05751 1.6329,-0.268522 0.60589,-0.562009 0.34499,-0.841445 1.4815,-1.759716 0.93715,-0.803593 0.97425,-1.063622 1.99671,-1.561435 z"
       id="path1075-9-3-6-7-2-1-3"
       sodipodi:nodetypes="cssascc" />
    <path
       style="fill:#0080e2;fill-opacity:1;stroke:#0080e2;stroke-width:0.195832px;stroke-linecap:butt;stroke-linejoin:miter;stroke-opacity:1"
       d="m 125.11441,88.170948 c 0,0 -0.58157,0.277946 -1.48217,1.149996 -0.71336,0.690776 -1.51677,2.236022 -1.72199,2.905129 -0.22696,0.740038 0.17812,1.625643 0.82869,1.721235 0.52315,0.07691 1.11062,-0.641052 1.23166,-1.105204 0.20814,-0.799772 -0.16215,-0.89485 0.30144,-2.280478 0.35729,-1.181674 0.2486,-1.420793 0.84238,-2.390676 z"
       id="path1075-9-3-6-7-2-1-3-8"
       sodipodi:nodetypes="cssascc"
       inkscape:transform-center-x="-1.1991712"
       inkscape:transform-center-y="0.19111112" />
    <path
       style="fill:#0080e2;fill-opacity:1;stroke:#0080e2;stroke-width:0.214017px;stroke-linecap:butt;stroke-linejoin:miter;stroke-opacity:1"
       d="m 136.82482,83.680424 c 0,0 -0.65123,0.235411 -1.71284,1.090214 -0.8409,0.677117 -1.88029,2.291453 -2.17881,3.008417 -0.33014,0.792972 -0.006,1.827018 0.67317,2.014947 0.54646,0.151166 1.25691,-0.571962 1.44133,-1.071993 0.31735,-0.861648 -0.0646,-1.013759 0.59465,-2.493638 0.52173,-1.266839 0.43505,-1.545953 1.18251,-2.547944 z"
       id="path1075-9-3-6-7-2-1-3-8-3"
       sodipodi:nodetypes="cssascc"
       inkscape:transform-center-x="-1.3233985"
       inkscape:transform-center-y="0.42607788" />
    <path
       style="fill:#0080e2;fill-opacity:1;stroke:#0080e2;stroke-width:0.232415px;stroke-linecap:butt;stroke-linejoin:miter;stroke-opacity:1"
       d="m 141.8201,93.656989 c 0,0 -0.60225,0.3002 -1.58403,1.390257 -0.77766,0.863471 -1.73889,2.922096 -2.01495,3.836381 -0.30532,1.011193 -0.006,2.329833 0.62254,2.569473 0.50536,0.19277 1.16239,-0.72937 1.33294,-1.36702 0.29348,-1.098766 -0.0597,-1.292741 0.54992,-3.179911 0.4825,-1.615492 0.40234,-1.971421 1.09359,-3.249175 z"
       id="path1075-9-3-6-7-2-1-3-8-3-8"
       sodipodi:nodetypes="cssascc"
       inkscape:transform-center-x="-1.2238415"
       inkscape:transform-center-y="0.54333898" />
    <path
       style="fill:#0080e2;fill-opacity:1;stroke:#0080e2;stroke-width:0.142538px;stroke-linecap:butt;stroke-linejoin:miter;stroke-opacity:1"
       d="m 132.3673,104.59005 c 0,0 -0.36063,0.29904 -0.84353,1.07676 -0.3825,0.61605 -0.68201,1.85652 -0.71156,2.36888 -0.0327,0.56667 0.40315,1.12728 0.87613,1.08239 0.38034,-0.0361 0.66983,-0.64961 0.67536,-1.00133 0.009,-0.60596 -0.26691,-0.60938 -0.1786,-1.67712 0.0486,-0.90395 -0.0686,-1.05544 0.18221,-1.84958 z"
       id="path1075-9-3-6-7-2-1-3-8-3-8-1"
       sodipodi:nodetypes="cssascc"
       inkscape:transform-center-x="-0.74807245"
       inkscape:transform-center-y="-0.15036455" />
    <path
       style="fill:#0080e2;fill-opacity:1;stroke:#0080e2;stroke-width:0.195832px;stroke-linecap:butt;stroke-linejoin:miter;stroke-opacity:1"
       d="m 121.93016,102.77943 c 0,0 -0.48765,0.42152 -1.12631,1.50025 -0.50587,0.85451 -0.87319,2.55695 -0.89464,3.25649 -0.0237,0.77369 0.60065,1.52107 1.2534,1.44165 0.52489,-0.0638 0.90216,-0.91131 0.89646,-1.39096 -0.0102,-0.82634 -0.39246,-0.82037 -0.31079,-2.27922 0.0329,-1.23406 -0.13504,-1.43602 0.18192,-2.52821 z"
       id="path1075-9-3-6-7-2-1-3-8-3-8-1-2"
       sodipodi:nodetypes="cssascc"
       inkscape:transform-center-x="-1.0741458"
       inkscape:transform-center-y="-0.24953127" />
    <path
       style="fill:#0080e2;fill-opacity:1;stroke:#0080e2;stroke-width:0.195832px;stroke-linecap:butt;stroke-linejoin:miter;stroke-opacity:1"
       d="m 149.26567,116.43106 c 0,0 -0.48765,0.42152 -1.12631,1.50025 -0.50587,0.85451 -0.87319,2.55695 -0.89464,3.25649 -0.0237,0.77369 0.60065,1.52107 1.2534,1.44165 0.52489,-0.0638 0.90216,-0.91131 0.89646,-1.39096 -0.0102,-0.82634 -0.39246,-0.82037 -0.31079,-2.27922 0.0329,-1.23406 -0.13504,-1.43602 0.18192,-2.52821 z"
       id="path1075-9-3-6-7-2-1-3-8-3-8-1-2-1"
       sodipodi:nodetypes="cssascc"
       inkscape:transform-center-x="-1.0741458"
       inkscape:transform-center-y="-0.24953127" />
    <path
       style="fill:#0080e2;fill-opacity:1;stroke:#0080e2;stroke-width:0.195832px;stroke-linecap:butt;stroke-linejoin:miter;stroke-opacity:1"
       d="m 150.7416,102.20988 c 0,0 -0.64176,0.0601 -1.78803,0.56769 -0.90797,0.4021 -2.19538,1.57504 -2.61896,2.13217 -0.46845,0.61621 -0.39396,1.58721 0.18363,1.90149 0.46442,0.25277 1.26362,-0.21828 1.53743,-0.61214 0.47142,-0.67875 0.15671,-0.89581 1.07012,-2.03624 0.74321,-0.98571 0.72371,-1.24765 1.61585,-1.95294 z"
       id="path1075-9-3-6-7-2-1-3-8-3-8-1-2-1-2"
       sodipodi:nodetypes="cssascc"
       inkscape:transform-center-x="-1.2341899"
       inkscape:transform-center-y="0.78023259" />
    <path
       style="fill:#0080e2;fill-opacity:1;stroke:#0080e2;stroke-width:0.195832px;stroke-linecap:butt;stroke-linejoin:miter;stroke-opacity:1"
       d="m 149.87591,87.642992 c 0,0 -0.63712,-0.0977 -1.87239,0.116038 -0.97848,0.169335 -2.51239,0.994158 -3.05869,1.431616 -0.60419,0.48386 -0.76796,1.443844 -0.28408,1.889096 0.38904,0.358077 1.27878,0.09542 1.64011,-0.22007 0.62227,-0.543802 0.36976,-0.83085 1.53298,-1.715048 0.96053,-0.77549 1.00528,-1.034314 2.0421,-1.501593 z"
       id="path1075-9-3-6-7-2-1-3-8-3-8-1-2-1-2-3"
       sodipodi:nodetypes="cssascc"
       inkscape:transform-center-x="-1.1123217"
       inkscape:transform-center-y="1.1568384" />
    <path
       style="fill:#0080e2;fill-opacity:1;stroke:#0080e2;stroke-width:0.195832px;stroke-linecap:butt;stroke-linejoin:miter;stroke-opacity:1"
       d="m 150.19496,69.468974 c 0,0 -0.57421,-0.292826 -1.81412,-0.4778 -0.98215,-0.146497 -2.69748,0.154928 -3.35352,0.398709 -0.72557,0.269657 -1.18251,1.129654 -0.86292,1.704331 0.25691,0.462131 1.18412,0.492156 1.62625,0.30609 0.76155,-0.320889 0.61196,-0.672711 1.994,-1.146907 1.15545,-0.434638 1.27922,-0.666316 2.41033,-0.784376 z"
       id="path1075-9-3-6-7-2-1-3-8-3-8-1-2-1-2-3-8"
       sodipodi:nodetypes="cssascc"
       inkscape:transform-center-x="-0.79890462"
       inkscape:transform-center-y="1.3691581" />
    <path
       style="fill:#0080e2;fill-opacity:1;stroke:#0080e2;stroke-width:0.195832px;stroke-linecap:butt;stroke-linejoin:miter;stroke-opacity:1"
       d="m 150.89194,78.707142 c 0,0 -0.57421,-0.292826 -1.81412,-0.4778 -0.98215,-0.146497 -2.69748,0.154928 -3.35352,0.398709 -0.72557,0.269657 -1.18251,1.129654 -0.86292,1.704331 0.25691,0.462131 1.18412,0.492156 1.62625,0.30609 0.76155,-0.320889 0.61196,-0.672711 1.994,-1.146907 1.15545,-0.434638 1.27922,-0.666316 2.41033,-0.784376 z"
       id="path1075-9-3-6-7-2-1-3-8-3-8-1-2-1-2-3-8-0"
       sodipodi:nodetypes="cssascc"
       inkscape:transform-center-x="-0.79890462"
       inkscape:transform-center-y="1.3691581" />
    <path
       style="fill:#0080e2;fill-opacity:1;stroke:#0080e2;stroke-width:0.301306px;stroke-linecap:butt;stroke-linejoin:miter;stroke-opacity:1"
       d="m 141.70515,108.87703 c 0,0 -0.82799,0.58769 -1.91238,2.09168 -0.85892,1.19138 -1.4826,3.56497 -1.51902,4.54028 -0.0402,1.0787 1.01985,2.12072 2.12816,2.00999 0.89122,-0.0889 1.53179,-1.27057 1.52212,-1.93931 -0.0173,-1.15211 -0.66637,-1.14378 -0.5277,-3.17775 0.0559,-1.72055 -0.22929,-2.00213 0.30889,-3.52489 z"
       id="path1075-9-3-6-7-2-1-3-8-3-8-1-2-1-6"
       sodipodi:nodetypes="cssascc"
       inkscape:transform-center-x="-1.8238122"
       inkscape:transform-center-y="-0.34790066" />
    <path
       style="fill:#0080e2;fill-opacity:1;stroke:#0080e2;stroke-width:0.202331px;stroke-linecap:butt;stroke-linejoin:miter;stroke-opacity:1"
       d="m 131.50208,94.641007 c 0,0 -0.58738,0.369941 -1.37391,1.332056 -0.62301,0.762113 -1.11083,2.296694 -1.15896,2.930524 -0.0533,0.70103 0.65663,1.394553 1.427,1.339023 0.61949,-0.0446 1.091,-0.803633 1.10001,-1.238743 0.0146,-0.749624 -0.43474,-0.753855 -0.2909,-2.074751 0.0792,-1.118274 -0.11174,-1.305681 0.29678,-2.288109 z"
       id="path1075-9-3-6-7-2-1-3-8-3-8-1-9"
       sodipodi:nodetypes="cssascc"
       inkscape:transform-center-x="-1.218438"
       inkscape:transform-center-y="-0.18601751" />
    <path
       style="fill:#0080e2;fill-opacity:1;stroke:#0080e2;stroke-width:0.202331px;stroke-linecap:butt;stroke-linejoin:miter;stroke-opacity:1"
       d="m 120.00064,115.51365 c 0,0 -0.48171,0.49983 -1.01497,1.62229 -0.42238,0.88914 -0.52854,2.49588 -0.4235,3.1228 0.11612,0.69339 0.97147,1.19674 1.70613,0.95835 0.59079,-0.19164 0.86682,-1.0415 0.77138,-1.46611 -0.16533,-0.73131 -0.60261,-0.62782 -0.77926,-1.94473 -0.19088,-1.10471 -0.42114,-1.24093 -0.25976,-2.2926 z"
       id="path1075-9-3-6-7-2-1-3-8-3-8-1-9-3"
       sodipodi:nodetypes="cssascc"
       inkscape:transform-center-x="-1.4890357"
       inkscape:transform-center-y="-0.61508776" />
    <path
       style="fill:#0080e2;fill-opacity:1;stroke:#0080e2;stroke-width:0.202331px;stroke-linecap:butt;stroke-linejoin:miter;stroke-opacity:1"
       d="m 130.70942,116.00132 c 0,0 -0.48612,0.49554 -1.02932,1.61323 -0.43025,0.88535 -0.55066,2.49109 -0.45118,3.11891 0.10997,0.6944 0.96081,1.20531 1.69756,0.97345 0.59246,-0.18639 0.87602,-1.03377 0.78435,-1.4592 -0.15884,-0.73276 -0.59702,-0.63315 -0.76197,-1.95157 -0.18108,-1.10636 -0.41012,-1.24462 -0.23942,-2.29482 z"
       id="path1075-9-3-6-7-2-1-3-8-3-8-1-9-3-8"
       sodipodi:nodetypes="cssascc"
       inkscape:transform-center-x="-1.4818192"
       inkscape:transform-center-y="-0.60049479" />
    <path
       style="fill:none;stroke:#0080e2;stroke-width:5;stroke-linecap:butt;stroke-linejoin:miter;stroke-miterlimit:4;stroke-dasharray:none;stroke-opacity:1"
       d="m 156.54846,135.32375 c 0,0 5.21472,-1.53595 7.843,-1.22842 3.71813,0.43505 7.70067,2.74522 11.43378,3.02381 6.75746,0.50428 11.65472,-3.46323 18.42634,-3.21279 4.69833,0.17376 10.03958,3.09565 14.74107,3.11829 4.95115,0.0239 13.89062,-3.77976 13.89062,-3.77976"
       id="path1407"
       sodipodi:nodetypes="cssssc" />
    <path
       style="fill:none;stroke:#0080e2;stroke-width:5;stroke-linecap:butt;stroke-linejoin:miter;stroke-miterlimit:4;stroke-dasharray:none;stroke-opacity:1"
       d="m 157.43057,144.47259 c 0,0 4.79899,-1.55759 7.21774,-1.24573 3.42172,0.44118 7.74822,2.50042 11.18372,2.78293 6.21874,0.51139 11.19806,-3.22854 17.42983,-2.97457 4.32377,0.17621 9.14471,2.76128 13.47138,2.78424 4.55644,0.0242 10.98786,-2.4156 10.98786,-2.4156"
       id="path1407-8"
       sodipodi:nodetypes="cssssc" />
    <path
       style="fill:none;stroke:#0080e2;stroke-width:5;stroke-linecap:butt;stroke-linejoin:miter;stroke-miterlimit:4;stroke-dasharray:none;stroke-opacity:1"
       d="m 156.44701,154.28631 c 0,0 4.79899,-1.55759 7.21774,-1.24573 3.42172,0.44118 7.74822,2.50042 11.18372,2.78293 6.21874,0.51139 11.19806,-3.22854 17.42983,-2.97457 4.32377,0.17621 9.14471,2.76128 13.47138,2.78424 4.55644,0.0242 -4.30972,-0.70158 -4.30972,-0.70158"
       id="path1407-8-79"
       sodipodi:nodetypes="cssssc" />
    <path
       style="fill:none;stroke:#0080e2;stroke-width:5;stroke-linecap:butt;stroke-linejoin:miter;stroke-miterlimit:4;stroke-dasharray:none;stroke-opacity:1"
       d="m 156.16326,162.88527 c 0,0 4.79899,-1.55759 7.21774,-1.24573 3.42172,0.44118 7.74822,2.50042 11.18372,2.78293 3.82095,0.31421 10.17926,-2.11917 15.59557,-2.74471 3.39895,-0.39255 4.60372,0.7336 6.90631,1.43287"
       id="path1407-8-79-7"
       sodipodi:nodetypes="csssc" />
  </g>
</svg>
